<svg xmlns="http://www.w3.org/2000/svg" xmlns:xlink="http://www.w3.org/1999/xlink" xmlns:lucid="lucid" width="2221.25" height="1099.47"><g transform="translate(3780.75 240.22005208333331)" lucid:page-tab-id="0_0"><path d="M-4000-500h2500v1500h-2500z" fill="#fff"/><path d="M-1709.95 360h-6.93l-25.28-2.07-19.25-3.73-13.15-4.14-8.46-3.73-5.6-3.1-3.6-2.7-2.5-2.28-1.8-2.07-1.26-1.66-.8-1.66-.64-1.45-.45-1.44-.18-1.45-.1-1.44V152.84h89.98z" stroke="#000" stroke-opacity="0" fill="#3998c5"/><path d="M-1619.5 327.06v.42l-.1 1.45-.27 1.45-.46 1.45-.73 1.45-.9 1.65-1.38 1.87-1.92 2.07-2.75 2.5-4.12 2.68-6.03 3.3-9.5 3.74-14.36 4.13-20.85 3.32-26.6 1.45h-1.46V152.84h91.4z" stroke="#000" stroke-opacity="0" fill="#59b3d8"/><path d="M-1684.34 121.38l21.1 3.4 14.8 4.22 9.93 3.87 6.3 3.42 4.15 2.8 2.7 2.38 2 2.1 1.26 1.77 1.1 1.58.53 1.5.54 1.38.18 1.33.18 1.3V154.16l-.36 1.3-.36 1.4-.53 1.44-.9 1.63-1.27 1.7-1.62 2.04-2.53 2.3-3.78 2.7-5.6 3.28-8.84 3.74-13.35 4.13-19.3 3.74-24.73 2.04-6.85.07-25.63-1.38-21.1-3.42-14.8-4.2-9.92-3.88-6.32-3.42-4.15-2.82-2.7-2.36-2-2.1-1.25-1.78-1.1-1.57-.53-1.5-.54-1.4-.18-1.3-.18-1.32V151.53l.36-1.32.36-1.37.54-1.45.9-1.64 1.27-1.7 1.62-2.04 2.53-2.3 3.8-2.7 5.58-3.2 8.84-3.82 13.35-4.13 19.3-3.75 24.73-2.03 6.86-.07z" stroke="#000" stroke-opacity="0" fill="#fff"/><path d="M-1679.96 131.12l19.27 3.9 10.23 3.57 5.32 2.73 3.02 2.08 1.72 1.67 1 1.34.72 1.2.43 1.03.3.96.13.9V151.84l-.28.96-.3 1-.7 1.13-.87 1.3-1.44 1.53-2.46 1.9-4.3 2.5-7.92 3.24-15.4 3.92-26.46 3.04-11.5.26-30.08-1.96-19.27-3.9-10.2-3.57-5.33-2.75-3.02-2.1-1.72-1.64-1-1.33-.73-1.18-.43-1-.3-1-.13-.92v-1.35l.3-.95.27-1 .73-1.13.86-1.3 1.43-1.53 2.45-1.9 4.3-2.5 7.93-3.25 15.4-3.9 26.46-3.05 11.5-.26z" stroke="#000" stroke-opacity="0" fill="#7fb900"/><path d="M-1653.2 163.93l6.75-3.17 4.73-3.4 2.87-3.6.57-2.87v-.95l-.3-.97-.27-1-.72-1.12-.86-1.3-1.43-1.52-2.44-1.9-4.3-2.5-8.03-3.25-15.34-3.94-26.4-3.02-11.6-.28-29.97 1.98-19.07 3.9-10.05 3.54-5.3 2.75-3 2.08-1.73 1.65-1 1.35-.72 1.2-.43 1.03-.3.97-.13.94v.35l1.14 3.8 3.45 3.66 5.16 3.34 5.15 2.23 14.34-4.28 32.1-3.72 10.33-.2 30.4 2 26.38 6.2z" stroke="#000" stroke-opacity="0" fill="#b7d332"/><path d="M-1677.5 210.83l7.62 2.32 6.26 3.84 5.25 5.35.23.23.56 1.05.55 1.63.56 2.8-.1 5.7-2.02 11.63-6.25 17.92-9.5 17.1.33.6 1.8 1.38 4.57.82 8.6-.93 2.8 1.73-6.7 4.9-3.8 1.27-3.92.7-4.13.12-1.23-.12-1.57-.35-2.9 1.98-.9 7.2-.78 2.46-.1 2.2-.68 3.03-.67 4.53-.23 1.98-1.34 4.2-2.46 3.6-1.34 1.16-3.8 2.33-4.36 1.17-1.46.23-6.48-1.05-3.13-3.72-1.45-3.84-.34-1.63-.56-3.97-.22-3.96.22-3.95.1-2.22-.2-4.07-.8-3.96-1.45-3.84.23-.93-3.58 3.6-4.36 2.22-1.9.47-4.03.22-3.9-.7-3.92-2.33 4.14-2.92 4.25-1.04 3.23-1.98 3.02-3.73-.22-1.28.1-1.28-.33.24-1.1.12-4.15-.7-3.8-1.74-1.68 1.86-4.02 4.42-5.03 5.94-.67.7-1.57 1.4-1.23.8-1.12.36-1 .1h-.9l-1.12-.33-1.1-.6-1.68-1.15-2.24-2.56-3.9-6.75-7.72-23.05-3.8-19.9.33-9.3 1.67-6.18 2.23-4.2 2.7-3 3.23-2.46 4.36-1.74 6.36-1.05 10.18.57 12.74 3.5 2.9-1.87 3.92-1.63 4.03-.93 4.24-.1h1.68l3.9.33 4.15.6 1-.36 10.96-1.85z" stroke="#000" stroke-opacity="0" fill="#336790"/><path d="M-1721.5 244.04l1.05.23 1 .42.88.8.05.8-.5.8-.73.63-.86.4-.94.13h-.23l-.2-.03-2.26-1.24-.8-1.78.05-.22.1-.2.3-.33 1.5-.5zM-1679.88 243.2l.78.35.34.54-.23.85-.53.7-.92.73-1.12.4-.38.02-.86-.12-.8-.36-.65-.57-.5-.82.8-1.13 2-.63 1.04-.07z" stroke="#000" stroke-opacity="0" fill="#fff"/><path d="M-1682.7 208.77l2.17.12 4.13.6 3.9 1.06 3.8 1.56 3.78 2.27 4.02 3.1 3.44 3.82.46.72 1.03 2.4.7 5.5-2.07 15.18-2.2 7.4-13.4 27.75.33.36 1.94.7 4.13.5 7.12-.97 2.52-.24 2.18 1.56-2.18 4.3-5.5 3.47-3.34 1.2-3.9.7-4.14.25-2.63-.12-2.63-.72-2.87 22.36-.35 2.03-1.38 4.2-2.63 3.58-1.38 1.2-3.9 2.26-4.37.95-1.95.36-2.07.13-3.9-.72-3.56-1.9-2.75-3-1.73-3.58-1.83-26.78-3.66 2.75-4.25 1.66-1.4.24-4 .24-3.9-.83-3.33-1.43-1.73-2.75 1.84-2.4 3.56-1.2 5.28-1.54 2.4-2.4.7-.83.68-.83v-.72l-3.9-.6-3.67-1.43-1.84 1.9-3.56 4.07-4.6 5.38-1.72 1.92-2.18 1.3-2.4.5-2.53-.25-.8-.37-1.5-.83-1.82-1.56-2.53-3.23-4.25-8-7.45-23.8-3.22-17.44.46-10.05 2.17-7.16 2.87-4.66 3.67-3.35 5.98-2.87 7.7-1.55 7.8.48 2.63.48 4.03.84 3.9 1.07 3.9 1.32 3-1.8 3.9-1.56 4.12-.83 4.13-.1h1.15l3.9.34 4.13.72.35-.12 1.04-.36 3.9-.95 4.02-.6 3.9-.36zm-31.57 4.2l-3.9 1.06-4 2.03-3.57 2.87-3.1 4.43-4.13 9.2-1.6 10.05 1.94-1.07 4.02-1.55 4.12-.96 1.72-.24 1.84.24 1.72.48 1.6.83 1.38 1.2 1.04 1.3.9 1.7.47 1.66 1.14 7.05-.23 9.92-2.74 8.73-.58 1.3-.57 1.33-.22.72-1.03 2.63-.7 2.86 1.04-.35h1.02l1.15.1 1.15.48 1.03.72.92.96.7 1.07.56 1.2.12.6.1.6.13.35v.24l1.37 31.33.7 2.03 1.14 1.8 1.37 1.43 1.72 1.2 1.94.84 1.95.48 2.17-.12 1.95-.48h.46l4.25-1.08 3.56-2.63.33-.35 2.4-3.7.93-4.3 3.1-24.75v-.6l1.83-5.98 3.43-1.67h.23l-.57-.96-.7-.85-2.18-3-1.6-3.2-.58-1.2-.92-1.56-4-7.66-3.7-10.53-.22-4.53.46-2.63 1.04-1.8.9-1.2 3.1-1.78 4.26-.84 5.4.12-1.38-3.35-2.07-4.2-2.63-3.82-2.98-3.58-3.1-2.87-3.9-2.87-4.38-2.27-1.6-.73-3.9-1.2-4.02-.7-4.02-.25h-1.03zm-3.2 70.05l-.7.36-.8.7h.1l-1.14 1.33-.8.96-.8 1.08-2.88 2.27-5.62 1.56-1.6.36-1.62.84 1.5.84 1.6.6 1.03.35 4.03.36 3.9-.7 4.13-2.04 3.22-3.23.34-1.43-.1-1.55-.82-1.32-1.14-.95-.23-.13-.8-.23zm-29.5-70.06l-4.14.6-4.02 1.2-3.68 2.02-2.63 2.27-2.64 3.83-2.07 5.98-.7 10.88 6.2 28.2 5.98 15.55 4.13 6.57 2.06 1.9 1.38.6 3-.1 2.98-2.52 3.56-4.3 3.78-4.2 2.53-2.74-.8-.7-.8-.72-2.53-3.23-1.72-3.95-.7-3.94.12-4.07.12-.5.34-3.93.12-4.07v-3.94l-.23-4.06v-.36l1.72-13.04 3.66-9.32 4.36-5.86.35-.36.45-.36-2.18-.7-3.9-1.1-4.02-.7-4-.6-4.03-.24zm71.95 69.58l-.46.12-2.4 1.3-.8 4.56.22.12 3.1.6 4 .1 4.03-.58 3.8-1.2 3.32-1.8 2.74-2.5h-.7l-.68.12-3.1.83-4 .37-4.03-.48-3.9-1.2-.34-.24-.36-.24zm-52.1-40.3l-3.9 1.44-3.67 2.15v.72l.24 4.07v3.94l-.23 3.95-.34 3.95-.1 3.47.68 3.47 1.37 3.22 2.08 2.86 2.06 1.8 2.4 1.3 2.54.85 2.75.24.8-2.75.92-2.63.35-.73.46-1.3.7-1.45 1.7-4.3 1.27-6.94-1.38-12.8-.46-1.78-1.15-1.56-1.5-1.2-1.72-.6h-1.6zm31.33-29.64l3.22 1.55 4.25 2.63 3.8 3.1 3.55 3.48.1.24 2.76 3.7 2.4 3.83 1.85 4.06 1.5 4.3v.48l-.12.47v3.35l-.45 3.35-.46 2.75-.24 2.75.1 3.1.36 3.12.34 1.43.35 4.06-.34 4.07-1.03 3.94-1.6 3.83.34.48.46.48.34.48 13.66-30.5 2.75-12.3.12-7.3-.8-3-.93-1.54-1.83-2.15-6.2-5.03-7.46-3.22-8.95-1.44zm12.52 28.8l-1.95.97-1.5 1.3-.22.37-.58 1.44-.34 2.15.57 4.54 7.12 15.9 1.03 1.8.58 1.2.57 1.43.8 1.3.92-2.5.92-3.95.1-4.06-.45-4.08-.35-3.22-.12-3.35.23-3 .35-2.86.35-2.76.23-2.75-2.06-.25-2.07-.12h-2.18z" stroke="#000" stroke-opacity="0" fill="#fff"/><path d="M-1582.47 269.17l-.74 14.47 5.77 6 12.4-.85 1.67-.1 3.36 8.46v2.67l-9.8 8.95-.08 8.47 9.4 8.3.48.37v2.66l-3.54 8.48-14.17-.77-5.88 5.9.93 12.66.1 1.7-8.4 3.44h-2.6l-8.77-10-8.2-.1-8.2 9.62-.38.48h-2.52l-8.4-3.62.85-14.47-5.78-6-12.5.87-1.58.2-4.2-10.48 10.63-9.72v-8.38l-9.4-8.38-1.22-1.14 4.3-10.38 14.15.86 5.88-6-.83-12.66-.1-1.62 10.26-4.3 9.42 10.87h8.3l8.1-9.62 1.12-1.24zm-26.66 20.66l-5.6 1.53-5.12 2.95-4.2 4.2-2.98 5.33-1.58 5.62-.1 6.1 1.5 6 2.97 5.22 4.2 4.3 5.03 3.03.28.1 5.6 1.52h5.77l5.7-1.52 5.12-2.95 4.2-4.2 2.97-5.32 1.6-5.53.08-6.1-1.58-6-2.9-5.32-4.2-4.28-5.02-3.05-.38-.1-5.6-1.52z" stroke="#000" stroke-opacity="0" fill="#a0a1a2"/><use xlink:href="#a" transform="matrix(1,0,0,1,-1830,369) translate(74.62095703124999 16.589501953125)"/><use xlink:href="#b" transform="matrix(1,0,0,1,-1830,369) translate(173.172802734375 16.589501953125)"/><path d="M-2340 166a6 6 0 0 1 6-6h348a6 6 0 0 1 6 6v147.55a6 6 0 0 1-6 6h-348a6 6 0 0 1-6-6z" stroke="#3a414a" stroke-width="2" fill="#fff"/><use xlink:href="#c" transform="matrix(1,0,0,1,-2328,172) translate(91.03059895833334 34.27777777777778)"/><use xlink:href="#d" transform="matrix(1,0,0,1,-2328,172) translate(10.057291666666657 61.165798611111114)"/><use xlink:href="#e" transform="matrix(1,0,0,1,-2328,172) translate(70.84288194444444 61.165798611111114)"/><use xlink:href="#f" transform="matrix(1,0,0,1,-2328,172) translate(183.6684027777778 61.165798611111114)"/><use xlink:href="#g" transform="matrix(1,0,0,1,-2328,172) translate(230.07682291666669 61.165798611111114)"/><use xlink:href="#h" transform="matrix(1,0,0,1,-2328,172) translate(13.4047309027778 88.05381944444446)"/><use xlink:href="#i" transform="matrix(1,0,0,1,-2328,172) translate(148.419921875 88.05381944444446)"/><use xlink:href="#j" transform="matrix(1,0,0,1,-2328,172) translate(193.8843315972222 88.05381944444446)"/><use xlink:href="#k" transform="matrix(1,0,0,1,-2328,172) translate(278.6174045138889 88.05381944444446)"/><use xlink:href="#l" transform="matrix(1,0,0,1,-2328,172) translate(148.65863715277777 114.94184027777777)"/><a xlink:href="http://AskFlow.Repo" target="_blank" transform="matrix(1,0,0,1,-2328,172)"><path class="lucid-link lucid-hotspot lucid-overlay-hotspot" fill-opacity="0" d="M91.03 12.75h153.94v26.9H91.03z"/></a><path d="M-1978.5 239.78h88.93a.1.1 0 0 1 .1.1.1.1 0 0 0 .12.12h73.04" stroke="#3a414a" fill="none"/><path d="M-1978.5 240.25h-.5v-.95h.5z" stroke="#3a414a" stroke-width=".05" fill="#3a414a"/><path d="M-1801.54 240l-14.27 4.63v-9.26z" stroke="#3a414a" fill="#3a414a"/><path d="M-2700 26a6 6 0 0 1 6-6h228a6 6 0 0 1 6 6v108a6 6 0 0 1-6 6h-228a6 6 0 0 1-6-6z" stroke="#3a414a" stroke-width="2" fill="#fff"/><use xlink:href="#m" transform="matrix(1,0,0,1,-2688,32) translate(21.422309027777786 57.52777777777778)"/><path d="M-2700 346a6 6 0 0 1 6-6h228a6 6 0 0 1 6 6v108a6 6 0 0 1-6 6h-228a6 6 0 0 1-6-6z" stroke="#3a414a" stroke-width="2" fill="#fff"/><use xlink:href="#n" transform="matrix(1,0,0,1,-2688,352) translate(21.9921875 54.5)"/><path d="M-2458.5 80h292.5a6 6 0 0 1 6 6v56.62" stroke="#3a414a" fill="none"/><path d="M-2458.5 80.47h-.5v-.94h.5z" stroke="#3a414a" stroke-width=".05" fill="#3a414a"/><path d="M-2160 157.38l-4.64-14.26h9.28z" stroke="#3a414a" fill="#3a414a"/><path d="M-2458.5 400h292.5a6 6 0 0 0 6-6v-57.06" stroke="#3a414a" fill="none"/><path d="M-2458.5 400.48h-.5v-.96h.5z" stroke="#3a414a" stroke-width=".05" fill="#3a414a"/><path d="M-2160 322.17l4.64 14.27h-9.28z" stroke="#3a414a" fill="#3a414a"/><path d="M-2660 606a6 6 0 0 1 6-6h148a6 6 0 0 1 6 6v108a6 6 0 0 1-6 6h-148a6 6 0 0 1-6-6z" stroke="#3a414a" stroke-width="2" fill="#fff"/><use xlink:href="#o" transform="matrix(1,0,0,1,-2648,612) translate(39.267361111111114 57.52777777777778)"/><path d="M-1724.25 553.86h47.97v10.8h-47.97v-10.8z" stroke="#000" stroke-opacity="0" fill="#7a7a7a"/><path d="M-1668.86 527.96v42.2h-61.38v-42.2h-9.76V580H-1659.33v-52.04h-9.52z" stroke="#000" stroke-opacity="0" fill="#7a7a7a"/><path d="M-1722.86 537.25l47.84 3.5-.77 10.77-47.83-3.5.78-10.77z" stroke="#000" stroke-opacity="0" fill="#7a7a7a"/><path d="M-1722.86 537.25l47.84 3.5-.77 10.77-47.83-3.5.78-10.77z" stroke="#000" stroke-opacity="0" fill="#ff8c00" fill-opacity=".1"/><path d="M-1718.1 515.83l46.43 12.2-2.7 10.43-46.42-12.2 2.7-10.43z" stroke="#000" stroke-opacity="0" stroke-width=".97" fill="#7a7a7a"/><path d="M-1718.1 515.83l46.43 12.2-2.7 10.43-46.42-12.2 2.7-10.43z" stroke="#000" stroke-opacity="0" stroke-width=".97" fill="#ff8c00" fill-opacity=".35"/><path d="M-1707.03 492.1l41.38 24.4-5.43 9.32-41.38-24.4 5.43-9.3z" stroke="#000" stroke-opacity="0" stroke-width=".86" fill="#7a7a7a"/><path d="M-1707.03 492.1l41.38 24.4-5.43 9.32-41.38-24.4 5.43-9.3z" stroke="#000" stroke-opacity="0" stroke-width=".86" fill="#ff8c00" fill-opacity=".75"/><path d="M-1682.6 469.92l26.95 39.87-8.88 6.06-26.95-39.88 8.9-6.06z" stroke="#000" stroke-opacity="0" stroke-width=".56" fill="#ff8c00"/><path d="M-1651.77 460l7.77 47.6-10.6 1.72-7.78-47.6 10.6-1.72z" stroke="#000" stroke-opacity="0" stroke-width=".16" fill="#ff8c00"/><path d="M-1651.77 460l7.77 47.6-10.6 1.72-7.78-47.6 10.6-1.72z" stroke="#000" stroke-opacity="0" stroke-width=".16" fill="#dd5900" fill-opacity=".4"/><path d="M-1653.23 462.34l-7.27 1.4-21.82 8.9-6.8 4.4-17.32 17.7-3.6 6.24-6.43 17.35-2.3 7.3-12.7 4.85h-6.64l.36 47.2 76.5.34.18-47.43-10.58-6.6 3.22-7.06 5.25-4.16 4.97-3.24 4.6-2.3 7.55-1.3z" stroke="#000" stroke-opacity="0" stroke-width="0" fill-opacity="0"/><use xlink:href="#p" transform="matrix(1,0,0,1,-1770,589) translate(19.830952148437497 16.589501953125)"/><path d="M-1641.44 775.22c-2.16-5.2-6.72-9.52-12.6-12.22-2.64-9-10.2-18.03-21.36-18.03h-1.08c-4.68-3.34-9.24-4.97-13.92-4.97-2.76 0-5.64.64-8.4 1.85-2.16-1.14-4.56-1.7-7.2-1.7-5.76 0-11.16 2.62-14.52 5.74-1.2-.3-2.16-.36-3.36-.36-8.52 0-17.04 7.03-19.32 15.62-7.32 2.7-12.72 7.52-15.24 13.84-2.52 6.18-1.92 13 1.44 18.82s9.24 9.23 15.84 9.23c2.4 0 4.8-.5 7.08-1.5 3.96 3.63 9 5.76 13.8 5.76 1.68 0 3.36-.2 4.92-.7 3.84 3.2 9.84 4.4 14.76 4.4 5.64 0 10.68-1.5 13.92-4.2 2.16 1 4.56 1.57 6.96 1.57 6.24 0 12.6-3.26 16.08-7.88 1.92.84 3.96 1.2 6 1.2 6.72 0 12.96-4.33 15.84-11.15 2.28-5.18 2.4-10.5.36-15.33z" stroke="#000" stroke-opacity="0" stroke-width="1.31" fill="#3176bc"/><path d="M-1726.15 781.4h-6.08c-.73-3.32-3.72-5.8-7.35-5.8-4.1 0-7.45 3.38-7.45 7.46 0 4.15 3.36 7.47 7.45 7.47 3.54 0 6.53-2.43 7.35-5.75h6.08c.73 0 1.37.64 1.37 1.4v20.56c1.18.25 2.17.44 3.36.5V786.2c0-2.63-2.18-4.8-4.73-4.8zm-13.43 6.06c-2.36 0-4.36-1.97-4.36-4.4 0-2.42 2-4.34 4.36-4.34 2.45 0 4.44 1.92 4.44 4.34 0 2.43-2 4.4-4.44 4.4zm37.5-4.53v-7.02c0-2.6-2.1-4.7-4.73-4.7h-10.63c-.82 0-1.45-.65-1.45-1.4V744.5c-.55.44-1.1.9-1.64 1.4-.63-.2-1.1-.25-1.72-.32v24.2c0 2.6 2.18 4.7 4.8 4.7h10.63c.72 0 1.35.65 1.35 1.4v7.03c-3.26.77-5.8 3.7-5.8 7.28 0 4.1 3.35 7.47 7.53 7.47 4.08 0 7.44-3.38 7.44-7.46 0-3.57-2.45-6.5-5.8-7.27zm-1.64 11.62c-2.45 0-4.45-1.92-4.45-4.34s2-4.4 4.45-4.4c2.36 0 4.36 1.98 4.36 4.4 0 2.43-2 4.35-4.36 4.35zm47.48-18.64c0-4.07-3.36-7.45-7.44-7.45-4.18 0-7.54 3.38-7.54 7.46 0 3.6 2.45 6.52 5.8 7.3v1.4c0 .76-.62 1.4-1.44 1.4h-13.44v-24.06c0-2.62-2.1-4.8-4.72-4.8h-7.35c-.73-3.3-3.73-5.8-7.27-5.8-4.17 0-7.53 3.32-7.53 7.47 0 4.16 3.36 7.48 7.53 7.48 3.55 0 6.54-2.43 7.27-5.75h7.35c.73 0 1.36.64 1.36 1.4v45.95c1.1.26 2.18.4 3.36.45V789.3h13.44c2.63 0 4.8-2.1 4.8-4.7v-1.35c3.28-.76 5.82-3.76 5.82-7.34zm-43.4-12.68c-2.45 0-4.35-1.98-4.35-4.4 0-2.43 1.9-4.35 4.36-4.35 2.37 0 4.36 1.92 4.36 4.34 0 2.44-2 4.42-4.36 4.42zm35.96 17.1c-2.45 0-4.45-1.98-4.45-4.4 0-2.43 2-4.35 4.45-4.35 2.36 0 4.35 1.92 4.35 4.34 0 2.44-2 4.42-4.35 4.42z" stroke="#000" stroke-opacity="0" stroke-width="1.31" fill="#fff"/><use xlink:href="#q" transform="matrix(1,0,0,1,-1790,820) translate(14.43704589843749 16.216875)"/><use xlink:href="#r" transform="matrix(1,0,0,1,-1790,820) translate(77.8904736328125 16.216875)"/><use xlink:href="#s" transform="matrix(1,0,0,1,-1790,820) translate(76.63170410156249 36.47162109375)"/><path d="M-2498.5 660h363.72a6 6 0 0 0 6-6V526a6 6 0 0 1 6-6h387.22" stroke="#3a414a" fill="none"/><path d="M-2498.5 660.48h-.5v-.96h.5z" stroke="#3a414a" stroke-width=".05" fill="#3a414a"/><path d="M-1720.8 520l-14.26 4.63v-9.26z" stroke="#3a414a" fill="#3a414a"/><path d="M-2498.5 660h363.72a6 6 0 0 1 6 6v103.5a6 6 0 0 0 6 6h347.83" stroke="#3a414a" fill="none"/><path d="M-2498.5 660.48h-.5v-.96h.5z" stroke="#3a414a" stroke-width=".05" fill="#3a414a"/><path d="M-1760.2 775.5l-14.25 4.63v-9.26z" stroke="#3a414a" fill="#3a414a"/><path d="M-2660-233.22a6 6 0 0 1 6-6h148a6 6 0 0 1 6 6v146.44a6 6 0 0 1-6 6h-148a6 6 0 0 1-6-6z" stroke="#3a414a" stroke-width="2" fill="#fff"/><use xlink:href="#t" transform="matrix(1,0,0,1,-2648,-227.22005208333331) translate(25.87217881944445 25.74652777777778)"/><use xlink:href="#u" transform="matrix(1,0,0,1,-2648,-227.22005208333331) translate(27.02777777777778 52.634548611111114)"/><use xlink:href="#v" transform="matrix(1,0,0,1,-2648,-227.22005208333331) translate(35.10611979166667 79.52256944444446)"/><use xlink:href="#w" transform="matrix(1,0,0,1,-2648,-227.22005208333331) translate(12.916449652777786 106.41059027777777)"/><use xlink:href="#x" transform="matrix(1,0,0,1,-2648,-227.22005208333331) translate(102.70594618055556 106.41059027777777)"/><use xlink:href="#y" transform="matrix(1,0,0,1,-2648,-227.22005208333331) translate(17.305555555555557 133.29861111111111)"/><g filter="url(#z)"><path d="M-3780 82a2 2 0 0 1 2-2h236a2 2 0 0 1 2 2v304a2 2 0 0 1-2 2h-236a2 2 0 0 1-2-2z" fill="#fff"/><path d="M-3627.28 204.87c6.8 0 12.57-2.7 17.36-8.03 4.78-5.35 7.2-11.8 7.2-19.38 0-7.58-2.42-14.03-7.2-19.38-4.8-5.35-10.57-8.04-17.36-8.04-6.78 0-12.56 2.7-17.35 8.04-4.8 5.35-7.18 11.8-7.18 19.38 0 7.57 2.38 14.03 7.17 19.38 4.8 5.34 10.57 8.03 17.35 8.03zm-65.44 0c6.78 0 12.56-2.7 17.35-8.03 4.8-5.35 7.18-11.8 7.18-19.38 0-7.58-2.38-14.03-7.17-19.38-4.8-5.35-10.57-8.04-17.35-8.04-6.8 0-12.57 2.7-17.36 8.04-4.78 5.35-7.2 11.8-7.2 19.38 0 7.57 2.42 14.03 7.2 19.38 4.8 5.34 10.57 8.03 17.36 8.03zm0 18.26c-19.1 0-57.28 10.7-57.28 31.98v22.86h114.55V255.1c0-21.3-38.18-31.97-57.27-31.97zm65.44 0c-2.37 0-5.07.2-7.93.46 9.47 7.67 16.1 18 16.1 31.5v22.86h49.1V255.1c0-21.3-38.18-31.97-57.28-31.97zm0 0" fill="#757575"/><use xlink:href="#A" transform="matrix(1,0,0,1,-3780,341) translate(103.01347363281249 28.05751953125)"/></g><path d="M-3420 180a6 6 0 0 1 6-6h148a6 6 0 0 1 6 6v108a6 6 0 0 1-6 6h-148a6 6 0 0 1-6-6z" stroke="#3a414a" stroke-width="2" fill="#fff"/><use xlink:href="#B" transform="matrix(1,0,0,1,-3408,186) translate(21.358289930555557 42.52777777777778)"/><use xlink:href="#C" transform="matrix(1,0,0,1,-3408,186) translate(25.980685763888893 69.41579861111111)"/><path d="M-3539.5 234h102.12" stroke="#3a414a" fill="none"/><path d="M-3539.5 234.47h-.5v-.94h.5z" stroke="#3a414a" stroke-width=".05" fill="#3a414a"/><path d="M-3422.62 234l-14.26 4.63v-9.26z" stroke="#3a414a" fill="#3a414a"/><path d="M-3020 180a6 6 0 0 1 6-6h148a6 6 0 0 1 6 6v108a6 6 0 0 1-6 6h-148a6 6 0 0 1-6-6z" stroke="#3a414a" stroke-width="2" fill="#fff"/><g><use xlink:href="#D" transform="matrix(1,0,0,1,-3008,186) translate(11.017578125000007 57.52777777777778)"/></g><path d="M-3021.5 234h-221.12" stroke="#3a414a" fill="none"/><path d="M-3021 234.47h-.5v-.94h.5z" stroke="#3a414a" stroke-width=".05" fill="#3a414a"/><path d="M-3257.38 234l14.26-4.63v9.26z" stroke="#3a414a" fill="#3a414a"/><path d="M-2858.5 234h92.5a6 6 0 0 0 6-6v-382a6 6 0 0 1 6-6h76.62" stroke="#3a414a" fill="none"/><path d="M-2858.5 234.47h-.5v-.94h.5z" stroke="#3a414a" stroke-width=".05" fill="#3a414a"/><path d="M-2662.62-160l-14.26 4.63v-9.26z" stroke="#3a414a" fill="#3a414a"/><path d="M-2858.5 234h92.5a6 6 0 0 0 6-6V100.87a6 6 0 0 1 6-6h36.62" stroke="#3a414a" fill="none"/><path d="M-2858.5 234.47h-.5v-.94h.5z" stroke="#3a414a" stroke-width=".05" fill="#3a414a"/><path d="M-2702.62 94.87l-14.26 4.63v-9.27z" stroke="#3a414a" fill="#3a414a"/><path d="M-2858.5 234h92.5a6 6 0 0 1 6 6v146a6 6 0 0 0 6 6h36.62" stroke="#3a414a" fill="none"/><path d="M-2858.5 234.47h-.5v-.94h.5z" stroke="#3a414a" stroke-width=".05" fill="#3a414a"/><path d="M-2702.62 392l-14.26 4.63v-9.26z" stroke="#3a414a" fill="#3a414a"/><path d="M-2858.5 234h92.5a6 6 0 0 1 6 6v414a6 6 0 0 0 6 6h76.62" stroke="#3a414a" fill="none"/><path d="M-2858.5 234.47h-.5v-.94h.5z" stroke="#3a414a" stroke-width=".05" fill="#3a414a"/><path d="M-2662.62 660l-14.26 4.63v-9.26z" stroke="#3a414a" fill="#3a414a"/><defs><path d="M180 0v-1490h510c348 0 508 209 508 474 0 266-160 477-507 477H370V0H180zm190-706h312c236 0 327-133 327-310 0-176-91-307-329-307H370v617" id="E"/><path d="M613 24c-304 0-509-231-509-576 0-350 205-580 509-580 305 0 511 230 511 580 0 345-206 576-511 576zm0-161c226 0 329-195 329-415 0-222-103-419-329-419-223 0-326 196-326 419 0 220 103 415 326 415" id="F"/><path d="M538 24C308 24 148-78 108-271l171-41c32 123 123 178 257 178 156 0 256-77 256-169 0-77-54-128-164-154l-186-44c-203-48-300-148-300-305 0-192 176-326 414-326 230 0 351 112 402 269l-163 42c-31-80-94-158-238-158-133 0-233 69-233 162 0 83 57 129 188 160l169 40c203 48 298 149 298 302 0 196-179 339-441 339" id="G"/><path d="M598-1118v154H368v674c0 100 37 144 132 144 23 0 62-6 92-12L629-6c-37 13-88 20-134 20-193 0-307-107-307-290v-688H20v-154h168v-266h180v266h230" id="H"/><path d="M611 442c-248 0-391-105-460-228l146-94c47 65 117 165 314 165 178 0 307-82 307-266v-224h-17C863-141 792-18 576-18c-268 0-472-195-472-546 0-346 197-568 476-568 216 0 288 133 326 193h17v-179h175V29c0 289-215 413-487 413zm-5-620c203 0 314-146 314-390 0-237-108-403-314-403-213 0-319 180-319 403 0 230 109 390 319 390" id="I"/><path d="M158 0v-1118h174v172h12c41-113 157-188 290-188 26 0 70 2 91 3v181c-11-2-60-10-108-10-161 0-279 109-279 260V0H158" id="J"/><path d="M628 24c-324 0-524-230-524-574 0-343 198-582 503-582 237 0 487 146 487 559v75H286c9 234 145 362 343 362 132 0 231-58 273-172l174 48C1024-91 857 24 628 24zM287-650h624c-17-190-120-322-304-322-192 0-309 151-320 322" id="K"/><path d="M657 26c-323 0-524-166-541-416h195c15 169 171 246 346 246 202 0 356-106 356-265 5-203-294-238-475-293-239-73-380-191-380-389 0-252 224-419 512-419 294 0 499 171 508 396H992c-17-145-151-228-328-228-193 0-321 102-321 242 0 156 175 211 284 241l149 41c160 44 422 134 422 412 0 244-197 432-541 432" id="L"/><path d="M784 20c-382 0-662-292-662-764 0-473 280-766 662-766s660 293 660 766c0 282-99 499-260 629l192 255h-198L1049-33C969 2 880 20 784 20zm-62-486h198l156 205c112-98 183-261 183-483 0-383-209-590-475-590-268 0-477 208-477 590 0 380 209 588 477 588 54 0 106-9 154-25" id="M"/><path d="M180 0v-1490h190v1322h690V0H180" id="N"/><g id="a"><use transform="matrix(0.008173828125000001,0,0,0.008173828125000001,0,0)" xlink:href="#E"/><use transform="matrix(0.008173828125000001,0,0,0.008173828125000001,10.601455078125001,0)" xlink:href="#F"/><use transform="matrix(0.008173828125000001,0,0,0.008173828125000001,20.638916015625,0)" xlink:href="#G"/><use transform="matrix(0.008173828125000001,0,0,0.008173828125000001,29.47482421875,0)" xlink:href="#H"/><use transform="matrix(0.008173828125000001,0,0,0.008173828125000001,34.7878125,0)" xlink:href="#I"/><use transform="matrix(0.008173828125000001,0,0,0.008173828125000001,45.054140625,0)" xlink:href="#J"/><use transform="matrix(0.008173828125000001,0,0,0.008173828125000001,51.078251953125005,0)" xlink:href="#K"/><use transform="matrix(0.008173828125000001,0,0,0.008173828125000001,60.837802734374996,0)" xlink:href="#L"/><use transform="matrix(0.008173828125000001,0,0,0.008173828125000001,71.57821289062501,0)" xlink:href="#M"/><use transform="matrix(0.008173828125000001,0,0,0.008173828125000001,84.37842773437501,0)" xlink:href="#N"/></g><path d="M481 0L54-1118h197c107 314 236 620 325 951 87-331 217-637 324-951h197L670 0H481" id="O"/><g id="b"><use transform="matrix(0.008173828125000001,0,0,0.008173828125000001,0,0)" xlink:href="#L"/><use transform="matrix(0.008173828125000001,0,0,0.008173828125000001,10.740410156250002,0)" xlink:href="#K"/><use transform="matrix(0.008173828125000001,0,0,0.008173828125000001,20.499960937500003,0)" xlink:href="#J"/><use transform="matrix(0.008173828125000001,0,0,0.008173828125000001,27.063544921875003,0)" xlink:href="#O"/><use transform="matrix(0.008173828125000001,0,0,0.008173828125000001,36.14466796875001,0)" xlink:href="#K"/><use transform="matrix(0.008173828125000001,0,0,0.008173828125000001,45.904218750000005,0)" xlink:href="#J"/></g><path d="M49 0l509-1490h400L1480 0h-339l-115-346H497L386 0H49zm524-585h374c-75-213-124-402-192-666-66 268-110 453-182 666" id="P"/><path d="M572 22C302 22 117-98 78-306l279-48c29 105 101 156 224 156 114 0 185-48 185-115 0-118-228-130-337-155-215-49-322-150-322-317 0-215 187-347 470-347 265 0 424 116 466 298l-266 47c-24-76-87-130-196-130-98 0-174 46-174 113 0 56 38 95 144 117l201 40c216 44 320 143 320 302 0 220-207 367-500 367" id="Q"/><path d="M128 0v-1490h300v802h17l366-430h347L740-633 1179 0H826L514-456l-86 97V0H128" id="R"/><path d="M135 0v-1490h980v253H440v416h609v249H440V0H135" id="S"/><path d="M428-1490V0H128v-1490h300" id="T"/><path d="M628 22C291 22 81-210 81-554c0-346 210-578 547-578 336 0 547 232 547 578 0 344-211 576-547 576zm0-236c160 0 242-146 242-341 0-197-82-341-242-341S387-753 387-555c0 195 81 341 241 341" id="U"/><path d="M361 0L31-1118h315c68 295 127 523 188 845 63-317 128-551 199-845h276c71 296 131 525 196 846 57-321 119-552 186-846h319L1378 0h-305c-73-261-148-486-204-771C813-484 740-261 666 0H361" id="V"/><path d="M342 19c-98 0-173-75-173-172s75-172 173-172 173 75 173 172S440 19 342 19" id="W"/><path d="M135 0v-1490h581c339 0 533 192 533 485 0 204-94 351-264 424L1302 0H964L680-532H440V0H135zm305-779h220c186 0 274-77 274-226 0-150-88-233-275-233H440v459" id="X"/><path d="M633 22C291 22 81-200 81-553c0-345 210-579 537-579 292 0 525 185 525 567v84H378c7 183 109 277 260 277 105 0 184-46 216-132l272 51C1071-99 893 22 633 22zM380-669h474c-15-146-94-237-233-237-143 0-229 99-241 237" id="Y"/><path d="M128 418v-1536h295v188h14c41-89 129-202 319-202 248 0 453 193 453 575 0 372-197 576-455 576-183 0-275-108-317-198h-9v597H128zm534-640c156 0 240-139 240-336 0-196-83-334-240-334-154 0-241 131-241 334 0 202 88 336 241 336" id="Z"/><g id="c"><use transform="matrix(0.010850694444444444,0,0,0.010850694444444444,0,0)" xlink:href="#P"/><use transform="matrix(0.010850694444444444,0,0,0.010850694444444444,16.341145833333332,0)" xlink:href="#Q"/><use transform="matrix(0.010850694444444444,0,0,0.010850694444444444,28.786892361111104,0)" xlink:href="#R"/><use transform="matrix(0.010850694444444444,0,0,0.010850694444444444,41.67751736111111,0)" xlink:href="#S"/><use transform="matrix(0.010850694444444444,0,0,0.010850694444444444,54.72005208333333,0)" xlink:href="#T"/><use transform="matrix(0.010850694444444444,0,0,0.010850694444444444,60.742187499999986,0)" xlink:href="#U"/><use transform="matrix(0.010850694444444444,0,0,0.010850694444444444,74.06684027777777,0)" xlink:href="#V"/><use transform="matrix(0.010850694444444444,0,0,0.010850694444444444,91.31944444444441,0)" xlink:href="#W"/><use transform="matrix(0.010850694444444444,0,0,0.010850694444444444,98.74131944444441,0)" xlink:href="#X"/><use transform="matrix(0.010850694444444444,0,0,0.010850694444444444,113.06423611111109,0)" xlink:href="#Y"/><use transform="matrix(0.010850694444444444,0,0,0.010850694444444444,126.30208333333331,0)" xlink:href="#Z"/><use transform="matrix(0.010850694444444444,0,0,0.010850694444444444,140.3103298611111,0)" xlink:href="#U"/><path fill="#8080ff" d="M-1.1 4.54h156.15V6.6H-1.1z"/></g><path d="M218-607c0-325 108-727 258-974h175c-155 315-250 682-250 974 0 265 78 531 250 886H476C306-10 218-315 218-607" id="aa"/><path d="M180 0v-1490h908v168H370v486h669v168H370v500h727V0H180" id="ab"/><path d="M613 24c-304 0-509-231-509-576 0-350 205-580 509-580 216 0 392 114 453 309l-173 49c-33-115-133-197-280-197-223 0-326 196-326 419 0 220 103 415 326 415 150 0 252-85 285-206l172 49C1010-95 832 24 613 24" id="ac"/><g id="d"><use transform="matrix(0.010850694444444444,0,0,0.010850694444444444,0,0)" xlink:href="#aa"/><use transform="matrix(0.010850694444444444,0,0,0.010850694444444444,8.10546875,0)" xlink:href="#ab"/><use transform="matrix(0.010850694444444444,0,0,0.010850694444444444,21.46267361111111,0)" xlink:href="#ac"/><use transform="matrix(0.010850694444444444,0,0,0.010850694444444444,34.157986111111114,0)" xlink:href="#H"/><use transform="matrix(0.010850694444444444,0,0,0.010850694444444444,41.21093750000001,0)" xlink:href="#F"/></g><path d="M158 418v-1536h174v179h20c37-59 106-193 324-193 279 0 474 222 474 576 0 356-194 580-473 580-213 0-288-135-325-197h-14v591H158zm492-555c209 0 317-186 317-421 0-232-105-413-317-413-206 0-314 166-314 413 0 249 111 421 314 421" id="ad"/><path d="M158 0v-1118h180V0H158zm91-1301c-68 0-125-53-125-119s57-119 125-119c69 0 126 53 126 119s-57 119-126 119" id="ae"/><path d="M140 405l46-156c120 36 205 19 263-150l32-93L54-1118h197c107 313 237 620 324 950 87-331 219-637 326-950h196L606 167c-68 178-176 259-334 259-64 0-113-12-132-21" id="af"/><g id="e"><use transform="matrix(0.010850694444444444,0,0,0.010850694444444444,0,0)" xlink:href="#J"/><use transform="matrix(0.010850694444444444,0,0,0.010850694444444444,7.996961805555555,0)" xlink:href="#K"/><use transform="matrix(0.010850694444444444,0,0,0.010850694444444444,20.95269097222222,0)" xlink:href="#ad"/><use transform="matrix(0.010850694444444444,0,0,0.010850694444444444,34.55946180555556,0)" xlink:href="#F"/><use transform="matrix(0.010850694444444444,0,0,0.010850694444444444,47.88411458333333,0)" xlink:href="#G"/><use transform="matrix(0.010850694444444444,0,0,0.010850694444444444,59.61371527777778,0)" xlink:href="#ae"/><use transform="matrix(0.010850694444444444,0,0,0.010850694444444444,64.99565972222223,0)" xlink:href="#H"/><use transform="matrix(0.010850694444444444,0,0,0.010850694444444444,72.04861111111111,0)" xlink:href="#F"/><use transform="matrix(0.010850694444444444,0,0,0.010850694444444444,85.37326388888889,0)" xlink:href="#J"/><use transform="matrix(0.010850694444444444,0,0,0.010850694444444444,94.0863715277778,0)" xlink:href="#af"/></g><path d="M338-670V0H158v-1490h180v566c73-149 190-208 336-208 226 0 379 139 379 422V0H872v-695c0-172-96-275-252-275-161 0-282 109-282 300" id="ag"/><path d="M471 26C259 26 90-98 90-318c0-256 228-303 435-329 202-27 287-16 287-108 0-139-79-219-234-219-161 0-248 86-283 164l-173-57c86-203 278-265 451-265 150 0 419 46 419 395V0H815v-152h-12C765-73 660 26 471 26zm31-159c199 0 310-134 310-271v-155c-30 35-226 55-295 64-131 17-246 59-246 186 0 116 97 176 231 176" id="ah"/><g id="f"><use transform="matrix(0.010850694444444444,0,0,0.010850694444444444,0,0)" xlink:href="#H"/><use transform="matrix(0.010850694444444444,0,0,0.010850694444444444,7.269965277777778,0)" xlink:href="#ag"/><use transform="matrix(0.010850694444444444,0,0,0.010850694444444444,20.41015625,0)" xlink:href="#ah"/><use transform="matrix(0.010850694444444444,0,0,0.010850694444444444,32.888454861111114,0)" xlink:href="#H"/></g><path d="M158 0v-1118h175l1 205c55-151 181-225 313-225 147 0 245 90 285 228 53-141 190-228 352-228 194 0 352 125 352 384V0h-181v-749c0-161-105-225-225-225-151 0-243 103-243 244V0H807v-767c0-124-93-207-219-207-131 0-250 92-250 270V0H158" id="ai"/><path d="M338-670V0H158v-1118h173l1 207c72-158 192-221 342-221 226 0 378 139 378 422V0H872v-695c0-172-96-275-252-275-161 0-282 109-282 300" id="aj"/><g id="g"><use transform="matrix(0.010850694444444444,0,0,0.010850694444444444,0,0)" xlink:href="#ai"/><use transform="matrix(0.010850694444444444,0,0,0.010850694444444444,19.466145833333332,0)" xlink:href="#ah"/><use transform="matrix(0.010850694444444444,0,0,0.010850694444444444,31.944444444444443,0)" xlink:href="#aj"/><use transform="matrix(0.010850694444444444,0,0,0.010850694444444444,45.07378472222222,0)" xlink:href="#ah"/><use transform="matrix(0.010850694444444444,0,0,0.010850694444444444,57.55208333333333,0)" xlink:href="#I"/><use transform="matrix(0.010850694444444444,0,0,0.010850694444444444,71.18055555555554,0)" xlink:href="#K"/><use transform="matrix(0.010850694444444444,0,0,0.010850694444444444,84.13628472222221,0)" xlink:href="#G"/></g><g id="h"><use transform="matrix(0.010850694444444444,0,0,0.010850694444444444,0,0)" xlink:href="#ac"/><use transform="matrix(0.010850694444444444,0,0,0.010850694444444444,12.6953125,0)" xlink:href="#F"/><use transform="matrix(0.010850694444444444,0,0,0.010850694444444444,26.01996527777778,0)" xlink:href="#aj"/><use transform="matrix(0.010850694444444444,0,0,0.010850694444444444,39.14930555555556,0)" xlink:href="#aj"/><use transform="matrix(0.010850694444444444,0,0,0.010850694444444444,52.27864583333333,0)" xlink:href="#K"/><use transform="matrix(0.010850694444444444,0,0,0.010850694444444444,65.234375,0)" xlink:href="#ac"/><use transform="matrix(0.010850694444444444,0,0,0.010850694444444444,77.9296875,0)" xlink:href="#H"/><use transform="matrix(0.010850694444444444,0,0,0.010850694444444444,85.19965277777777,0)" xlink:href="#ae"/><use transform="matrix(0.010850694444444444,0,0,0.010850694444444444,90.58159722222221,0)" xlink:href="#F"/><use transform="matrix(0.010850694444444444,0,0,0.010850694444444444,103.90624999999997,0)" xlink:href="#aj"/><use transform="matrix(0.010850694444444444,0,0,0.010850694444444444,117.03559027777776,0)" xlink:href="#G"/></g><path d="M577 24c-279 0-473-224-473-580 0-354 195-576 474-576 218 0 287 134 324 193h14v-551h180V0H922v-173h-20C865-111 790 24 577 24zm27-161c203 0 314-172 314-421 0-247-108-413-314-413-212 0-317 181-317 413 0 235 108 421 317 421" id="ak"/><g id="i"><use transform="matrix(0.010850694444444444,0,0,0.010850694444444444,0,0)" xlink:href="#ah"/><use transform="matrix(0.010850694444444444,0,0,0.010850694444444444,12.47829861111111,0)" xlink:href="#aj"/><use transform="matrix(0.010850694444444444,0,0,0.010850694444444444,25.60763888888889,0)" xlink:href="#ak"/></g><path d="M1096 418H916v-591h-14C865-111 790 24 577 24c-279 0-473-224-473-580 0-354 195-576 474-576 218 0 287 134 324 193h20v-179h174V418zM604-137c203 0 314-172 314-421 0-247-108-413-314-413-212 0-317 181-317 413 0 235 108 421 317 421" id="al"/><path d="M537 14c-226 0-379-139-379-422v-710h180v695c0 172 97 275 253 275 160 0 281-109 281-300v-670h181V0H879v-209C806-46 684 14 537 14" id="am"/><g id="j"><use transform="matrix(0.010850694444444444,0,0,0.010850694444444444,0,0)" xlink:href="#al"/><use transform="matrix(0.010850694444444444,0,0,0.010850694444444444,13.606770833333332,0)" xlink:href="#am"/><use transform="matrix(0.010850694444444444,0,0,0.010850694444444444,26.746961805555554,0)" xlink:href="#K"/><use transform="matrix(0.010850694444444444,0,0,0.010850694444444444,39.70269097222222,0)" xlink:href="#J"/><use transform="matrix(0.010850694444444444,0,0,0.010850694444444444,48.41579861111111,0)" xlink:href="#ae"/><use transform="matrix(0.010850694444444444,0,0,0.010850694444444444,53.79774305555556,0)" xlink:href="#K"/><use transform="matrix(0.010850694444444444,0,0,0.010850694444444444,66.75347222222221,0)" xlink:href="#G"/></g><path d="M409 0L70-1118h191c89 329 165 560 243 925 75-353 154-601 240-925h192c85 325 161 564 235 922 77-354 157-598 244-922h191L1267 0h-179c-86-307-176-590-250-913C763-588 675-308 588 0H409" id="an"/><g id="k"><use transform="matrix(0.010850694444444444,0,0,0.010850694444444444,0,0)" xlink:href="#an"/><use transform="matrix(0.010850694444444444,0,0,0.010850694444444444,18.18576388888889,0)" xlink:href="#ae"/><use transform="matrix(0.010850694444444444,0,0,0.010850694444444444,23.567708333333336,0)" xlink:href="#H"/><use transform="matrix(0.010850694444444444,0,0,0.010850694444444444,30.837673611111114,0)" xlink:href="#ag"/></g><path d="M645 0H180v-1490h484c435 0 692 280 692 742 0 466-257 748-711 748zM370-168h263c363 0 539-218 539-580 0-358-176-574-521-574H370v1154" id="ao"/><path d="M180 0v-1490h528c311 0 458 177 458 395 0 191-114 278-244 313v14c139 9 302 137 302 371 0 225-148 397-499 397H180zm190-168h350c232 0 321-102 321-231 0-149-120-277-311-277H370v508zm0-668h328c160 0 286-101 286-255 0-129-87-231-280-231H370v486" id="ap"/><path d="M96 279C273-86 346-350 346-607c0-292-95-659-250-974h175c150 246 258 650 258 974 0 297-91 602-258 886H96" id="aq"/><g id="l"><use transform="matrix(0.010850694444444444,0,0,0.010850694444444444,0,0)" xlink:href="#ao"/><use transform="matrix(0.010850694444444444,0,0,0.010850694444444444,16.03732638888889,0)" xlink:href="#ap"/><use transform="matrix(0.010850694444444444,0,0,0.010850694444444444,30.577256944444443,0)" xlink:href="#aq"/></g><path d="M783 20c-382 0-661-292-661-764 0-473 279-766 661-766 302 0 548 182 601 489h-190c-42-204-217-313-411-313-268 0-476 208-476 590 0 381 209 588 476 588 195 0 369-110 411-313h190c-52 303-296 489-601 489" id="ar"/><g id="m"><use transform="matrix(0.010850694444444444,0,0,0.010850694444444444,0,0)" xlink:href="#M"/><use transform="matrix(0.010850694444444444,0,0,0.010850694444444444,16.9921875,0)" xlink:href="#am"/><use transform="matrix(0.010850694444444444,0,0,0.010850694444444444,30.13237847222222,0)" xlink:href="#K"/><use transform="matrix(0.010850694444444444,0,0,0.010850694444444444,43.088107638888886,0)" xlink:href="#G"/><use transform="matrix(0.010850694444444444,0,0,0.010850694444444444,54.81770833333333,0)" xlink:href="#H"/><use transform="matrix(0.010850694444444444,0,0,0.010850694444444444,62.08767361111111,0)" xlink:href="#ae"/><use transform="matrix(0.010850694444444444,0,0,0.010850694444444444,67.46961805555556,0)" xlink:href="#F"/><use transform="matrix(0.010850694444444444,0,0,0.010850694444444444,80.79427083333333,0)" xlink:href="#aj"/><use transform="matrix(0.010850694444444444,0,0,0.010850694444444444,93.92361111111111,0)" xlink:href="#G"/><use transform="matrix(0.010850694444444444,0,0,0.010850694444444444,105.65321180555556,0)" xlink:href="#ar"/><use transform="matrix(0.010850694444444444,0,0,0.010850694444444444,121.88585069444441,0)" xlink:href="#ah"/><use transform="matrix(0.010850694444444444,0,0,0.010850694444444444,134.36414930555554,0)" xlink:href="#ac"/><use transform="matrix(0.010850694444444444,0,0,0.010850694444444444,147.05946180555554,0)" xlink:href="#ag"/><use transform="matrix(0.010850694444444444,0,0,0.010850694444444444,160.19965277777777,0)" xlink:href="#K"/></g><path d="M180 0v-1490h510c348 0 508 194 508 460 0 198-88 351-276 417L1256 0h-220L726-579c-117 2-238 0-356 1V0H180zm190-747h312c235 0 327-108 327-283 0-177-92-293-329-293H370v576" id="as"/><g id="n"><use transform="matrix(0.0078125,0,0,0.0078125,0,0)" xlink:href="#as"/><use transform="matrix(0.0078125,0,0,0.0078125,10.0625,0)" xlink:href="#K"/><use transform="matrix(0.0078125,0,0,0.0078125,19.390625,0)" xlink:href="#ac"/><use transform="matrix(0.0078125,0,0,0.0078125,28.53125,0)" xlink:href="#K"/><use transform="matrix(0.0078125,0,0,0.0078125,37.859375,0)" xlink:href="#aj"/><use transform="matrix(0.0078125,0,0,0.0078125,47.3125,0)" xlink:href="#H"/><use transform="matrix(0.0078125,0,0,0.0078125,52.546875,0)" xlink:href="#L"/><use transform="matrix(0.0078125,0,0,0.0078125,62.8125,0)" xlink:href="#K"/><use transform="matrix(0.0078125,0,0,0.0078125,72.296875,0)" xlink:href="#ah"/><use transform="matrix(0.0078125,0,0,0.0078125,81.28125,0)" xlink:href="#J"/><use transform="matrix(0.0078125,0,0,0.0078125,87.0390625,0)" xlink:href="#ac"/><use transform="matrix(0.0078125,0,0,0.0078125,96.1796875,0)" xlink:href="#ag"/><use transform="matrix(0.0078125,0,0,0.0078125,105.640625,0)" xlink:href="#K"/><use transform="matrix(0.0078125,0,0,0.0078125,114.96875,0)" xlink:href="#G"/><use transform="matrix(0.0078125,0,0,0.0078125,123.4140625,0)" xlink:href="#ar"/><use transform="matrix(0.0078125,0,0,0.0078125,135.1015625,0)" xlink:href="#ah"/><use transform="matrix(0.0078125,0,0,0.0078125,144.0859375,0)" xlink:href="#ac"/><use transform="matrix(0.0078125,0,0,0.0078125,153.2265625,0)" xlink:href="#ag"/><use transform="matrix(0.0078125,0,0,0.0078125,162.6875,0)" xlink:href="#K"/></g><path d="M180 0v-1490h901v168H370v510h643v168H370V0H180" id="at"/><g id="o"><use transform="matrix(0.010850694444444444,0,0,0.010850694444444444,0,0)" xlink:href="#at"/><use transform="matrix(0.010850694444444444,0,0,0.010850694444444444,13.118489583333332,0)" xlink:href="#ae"/><use transform="matrix(0.010850694444444444,0,0,0.010850694444444444,18.50043402777778,0)" xlink:href="#aj"/><use transform="matrix(0.010850694444444444,0,0,0.010850694444444444,31.62977430555556,0)" xlink:href="#ac"/><use transform="matrix(0.010850694444444444,0,0,0.010850694444444444,44.32508680555556,0)" xlink:href="#ag"/></g><path d="M158 0v-1490h180v865h22l478-493h223L593-638 1096 0H865L456-523 338-412V0H158" id="au"/><path d="M784 20c-382 0-662-292-662-764 0-473 280-766 662-766s660 293 660 766c0 472-278 764-660 764zm0-176c266 0 475-207 475-588 0-383-209-590-475-590-268 0-477 208-477 590 0 380 209 588 477 588" id="av"/><path d="M678-1118v154H420V0H240v-964H20v-154h220v-149c0-194 155-293 318-293 85 0 141 18 168 30l-50 154c-19-6-47-17-97-17-111 0-159 58-159 166v109h258" id="aw"/><path d="M338-1490V0H158v-1490h180" id="ax"/><g id="p"><use transform="matrix(0.008173828125000001,0,0,0.008173828125000001,0,0)" xlink:href="#L"/><use transform="matrix(0.008173828125000001,0,0,0.008173828125000001,10.740410156250002,0)" xlink:href="#H"/><use transform="matrix(0.008173828125000001,0,0,0.008173828125000001,16.298613281250002,0)" xlink:href="#ah"/><use transform="matrix(0.008173828125000001,0,0,0.008173828125000001,25.698515625000006,0)" xlink:href="#ac"/><use transform="matrix(0.008173828125000001,0,0,0.008173828125000001,35.26189453125001,0)" xlink:href="#au"/><use transform="matrix(0.008173828125000001,0,0,0.008173828125000001,44.44927734375001,0)" xlink:href="#av"/><use transform="matrix(0.008173828125000001,0,0,0.008173828125000001,57.24949218750001,0)" xlink:href="#O"/><use transform="matrix(0.008173828125000001,0,0,0.008173828125000001,66.330615234375,0)" xlink:href="#K"/><use transform="matrix(0.008173828125000001,0,0,0.008173828125000001,76.09016601562502,0)" xlink:href="#J"/><use transform="matrix(0.008173828125000001,0,0,0.008173828125000001,82.65374999999999,0)" xlink:href="#aw"/><use transform="matrix(0.008173828125000001,0,0,0.008173828125000001,88.84951171875001,0)" xlink:href="#ax"/><use transform="matrix(0.008173828125000001,0,0,0.008173828125000001,92.90373046875001,0)" xlink:href="#F"/><use transform="matrix(0.008173828125000001,0,0,0.008173828125000001,102.63875976562501,0)" xlink:href="#an"/></g><path d="M52 0l541-1490h220L1361 0h-200l-149-416H398L254 0H52zm404-582h497c-103-290-145-390-251-756-108 377-145 460-246 756" id="ay"/><path d="M370-1490V0H180v-1490h190" id="az"/><g id="q"><use transform="matrix(0.008173828125000001,0,0,0.008173828125000001,0,0)" xlink:href="#av"/><use transform="matrix(0.008173828125000001,0,0,0.008173828125000001,12.800214843750002,0)" xlink:href="#ad"/><use transform="matrix(0.008173828125000001,0,0,0.008173828125000001,23.0501953125,0)" xlink:href="#K"/><use transform="matrix(0.008173828125000001,0,0,0.008173828125000001,32.80974609375,0)" xlink:href="#aj"/><use transform="matrix(0.008173828125000001,0,0,0.008173828125000001,42.700078125000005,0)" xlink:href="#ay"/><use transform="matrix(0.008173828125000001,0,0,0.008173828125000001,54.249697265625,0)" xlink:href="#az"/></g><path d="M677 24c-213 0-288-135-325-197h-20V0H158v-1490h180v551h14c37-59 106-193 324-193 279 0 474 222 474 576 0 356-194 580-473 580zm-27-161c209 0 317-186 317-421 0-232-105-413-317-413-206 0-314 166-314 413 0 249 111 421 314 421" id="aA"/><g id="r"><use transform="matrix(0.008173828125000001,0,0,0.008173828125000001,0,0)" xlink:href="#ac"/><use transform="matrix(0.008173828125000001,0,0,0.008173828125000001,9.563378906250001,0)" xlink:href="#F"/><use transform="matrix(0.008173828125000001,0,0,0.008173828125000001,19.600839843750002,0)" xlink:href="#ai"/><use transform="matrix(0.008173828125000001,0,0,0.008173828125000001,34.26468750000001,0)" xlink:href="#ad"/><use transform="matrix(0.008173828125000001,0,0,0.008173828125000001,44.67814453125001,0)" xlink:href="#ah"/><use transform="matrix(0.008173828125000001,0,0,0.008173828125000001,54.07804687500001,0)" xlink:href="#H"/><use transform="matrix(0.008173828125000001,0,0,0.008173828125000001,59.554511718750014,0)" xlink:href="#ae"/><use transform="matrix(0.008173828125000001,0,0,0.008173828125000001,63.60873046875001,0)" xlink:href="#aA"/><use transform="matrix(0.008173828125000001,0,0,0.008173828125000001,73.8587109375,0)" xlink:href="#ax"/><use transform="matrix(0.008173828125000001,0,0,0.008173828125000001,77.91292968750001,0)" xlink:href="#K"/></g><g id="s"><use transform="matrix(0.008173828125000001,0,0,0.008173828125000001,0,0)" xlink:href="#ay"/><use transform="matrix(0.008173828125000001,0,0,0.008173828125000001,11.549619140625001,0)" xlink:href="#E"/><use transform="matrix(0.008173828125000001,0,0,0.008173828125000001,22.240986328125004,0)" xlink:href="#az"/></g><path d="M65 0l393-574-370-544h210c88 136 192 297 267 435 67-142 176-302 264-435h206L661-564 1053 0H844c-94-144-206-310-287-458C484-308 366-142 273 0H65" id="aB"/><g id="t"><use transform="matrix(0.010850694444444444,0,0,0.010850694444444444,0,0)" xlink:href="#E"/><use transform="matrix(0.010850694444444444,0,0,0.010850694444444444,14.192708333333332,0)" xlink:href="#ag"/><use transform="matrix(0.010850694444444444,0,0,0.010850694444444444,27.332899305555554,0)" xlink:href="#F"/><use transform="matrix(0.010850694444444444,0,0,0.010850694444444444,40.65755208333333,0)" xlink:href="#K"/><use transform="matrix(0.010850694444444444,0,0,0.010850694444444444,53.613281249999986,0)" xlink:href="#aj"/><use transform="matrix(0.010850694444444444,0,0,0.010850694444444444,66.74262152777777,0)" xlink:href="#ae"/><use transform="matrix(0.010850694444444444,0,0,0.010850694444444444,72.12456597222221,0)" xlink:href="#aB"/></g><g id="u"><use transform="matrix(0.010850694444444444,0,0,0.010850694444444444,0,0)" xlink:href="#E"/><use transform="matrix(0.010850694444444444,0,0,0.010850694444444444,14.192708333333332,0)" xlink:href="#am"/><use transform="matrix(0.010850694444444444,0,0,0.010850694444444444,27.332899305555554,0)" xlink:href="#aA"/><use transform="matrix(0.010850694444444444,0,0,0.010850694444444444,40.939670138888886,0)" xlink:href="#L"/><use transform="matrix(0.010850694444444444,0,0,0.010850694444444444,55.197482638888886,0)" xlink:href="#am"/><use transform="matrix(0.010850694444444444,0,0,0.010850694444444444,68.33767361111111,0)" xlink:href="#aA"/></g><g id="v"><use transform="matrix(0.010850694444444444,0,0,0.010850694444444444,0,0)" xlink:href="#aa"/><use transform="matrix(0.010850694444444444,0,0,0.010850694444444444,7.855902777777778,0)" xlink:href="#K"/><use transform="matrix(0.010850694444444444,0,0,0.010850694444444444,20.377604166666664,0)" xlink:href="#O"/><use transform="matrix(0.010850694444444444,0,0,0.010850694444444444,32.43272569444444,0)" xlink:href="#K"/><use transform="matrix(0.010850694444444444,0,0,0.010850694444444444,45.38845486111111,0)" xlink:href="#aj"/><use transform="matrix(0.010850694444444444,0,0,0.010850694444444444,58.517795138888886,0)" xlink:href="#H"/></g><g id="w"><use transform="matrix(0.010850694444444444,0,0,0.010850694444444444,0,0)" xlink:href="#ak"/><use transform="matrix(0.010850694444444444,0,0,0.010850694444444444,13.606770833333332,0)" xlink:href="#K"/><use transform="matrix(0.010850694444444444,0,0,0.010850694444444444,26.5625,0)" xlink:href="#ax"/><use transform="matrix(0.010850694444444444,0,0,0.010850694444444444,31.944444444444443,0)" xlink:href="#ae"/><use transform="matrix(0.010850694444444444,0,0,0.010850694444444444,37.326388888888886,0)" xlink:href="#O"/><use transform="matrix(0.010850694444444444,0,0,0.010850694444444444,49.381510416666664,0)" xlink:href="#K"/><use transform="matrix(0.010850694444444444,0,0,0.010850694444444444,62.33723958333333,0)" xlink:href="#J"/><use transform="matrix(0.010850694444444444,0,0,0.010850694444444444,71.05034722222221,0)" xlink:href="#af"/></g><g id="x"><use transform="matrix(0.010850694444444444,0,0,0.010850694444444444,0,0)" xlink:href="#H"/><use transform="matrix(0.010850694444444444,0,0,0.010850694444444444,7.052951388888888,0)" xlink:href="#F"/></g><path d="M600 0L52-1490h200c166 485 304 806 458 1336 156-533 285-846 449-1336h202L819 0H600" id="aC"/><g id="y"><use transform="matrix(0.010850694444444444,0,0,0.010850694444444444,0,0)" xlink:href="#N"/><use transform="matrix(0.010850694444444444,0,0,0.010850694444444444,12.565104166666666,0)" xlink:href="#ae"/><use transform="matrix(0.010850694444444444,0,0,0.010850694444444444,17.94704861111111,0)" xlink:href="#O"/><use transform="matrix(0.010850694444444444,0,0,0.010850694444444444,30.00217013888889,0)" xlink:href="#K"/><use transform="matrix(0.010850694444444444,0,0,0.010850694444444444,41.82942708333333,0)" xlink:href="#aC"/><use transform="matrix(0.010850694444444444,0,0,0.010850694444444444,57.16145833333333,0)" xlink:href="#ae"/><use transform="matrix(0.010850694444444444,0,0,0.010850694444444444,62.54340277777778,0)" xlink:href="#K"/><use transform="matrix(0.010850694444444444,0,0,0.010850694444444444,75.09765625,0)" xlink:href="#an"/><use transform="matrix(0.010850694444444444,0,0,0.010850694444444444,93.28342013888889,0)" xlink:href="#aq"/></g><path d="M665-137c214 0 337-121 336-332v-987h193v990c-3 300-218 486-529 486-309 0-526-181-525-484v-992h190v986c-1 210 123 333 335 333" id="aD"/><path d="M538-131c121 0 232-49 232-156 0-50-20-88-56-117-73-60-334-92-420-143-92-55-162-110-162-238 0-190 192-317 400-317 223 0 414 129 413 338H759c0-108-110-186-227-186-119 0-215 53-215 159 0 45 18 78 53 101 76 52 331 90 416 139 98 57 169 115 169 251C955-92 760 20 538 20c-176 0-314-68-386-174-38-55-57-115-57-179h185c6 129 116 202 258 202" id="aE"/><path d="M599-131c141 0 220-65 285-146l113 88C906-50 770 20 589 20 281 21 93-214 93-545c0-223 93-397 233-485 74-48 154-72 240-72 300 2 449 218 445 537v77H278c0 197 129 357 321 357zm227-509c-3-180-88-310-260-310-170 0-264 140-282 310h542" id="aF"/><path d="M663-916c-163-27-288 18-338 148V0H140v-1082h180l3 125c61-97 147-145 258-145 36 0 63 5 82 14v172" id="aG"/><g id="A"><use transform="matrix(0.0065107421875,0,0,0.0065107421875,0,0)" xlink:href="#aD"/><use transform="matrix(0.0065107421875,0,0,0.0065107421875,8.646265625,0)" xlink:href="#aE"/><use transform="matrix(0.0065107421875,0,0,0.0065107421875,15.521609374999999,0)" xlink:href="#aF"/><use transform="matrix(0.0065107421875,0,0,0.0065107421875,22.5857646484375,0)" xlink:href="#aG"/><use transform="matrix(0.0065107421875,0,0,0.0065107421875,27.097708984375,0)" xlink:href="#aE"/></g><filter id="z" filterUnits="objectBoundingBox" x="-.01" y="0" width="1.01" height="1.01"><feOffset result="offOut" in="SourceAlpha" dy="1"/><feGaussianBlur result="blurOut" in="offOut" stdDeviation=".75"/><feColorMatrix result="colorOut" in="blurOut" values="0 0 0 0 0 0 0 0 0 0 0 0 0 0 0 0 0 0 0.4 0"/><feBlend in="SourceGraphic" in2="colorOut"/></filter><g id="B"><use transform="matrix(0.010850694444444444,0,0,0.010850694444444444,0,0)" xlink:href="#N"/><use transform="matrix(0.010850694444444444,0,0,0.010850694444444444,12.565104166666666,0)" xlink:href="#ae"/><use transform="matrix(0.010850694444444444,0,0,0.010850694444444444,17.94704861111111,0)" xlink:href="#O"/><use transform="matrix(0.010850694444444444,0,0,0.010850694444444444,30.00217013888889,0)" xlink:href="#K"/><use transform="matrix(0.010850694444444444,0,0,0.010850694444444444,41.82942708333333,0)" xlink:href="#aC"/><use transform="matrix(0.010850694444444444,0,0,0.010850694444444444,57.16145833333333,0)" xlink:href="#ae"/><use transform="matrix(0.010850694444444444,0,0,0.010850694444444444,62.54340277777778,0)" xlink:href="#K"/><use transform="matrix(0.010850694444444444,0,0,0.010850694444444444,75.09765625,0)" xlink:href="#an"/></g><g id="C"><use transform="matrix(0.010850694444444444,0,0,0.010850694444444444,0,0)" xlink:href="#ad"/><use transform="matrix(0.010850694444444444,0,0,0.010850694444444444,13.606770833333332,0)" xlink:href="#J"/><use transform="matrix(0.010850694444444444,0,0,0.010850694444444444,21.603732638888886,0)" xlink:href="#F"/><use transform="matrix(0.010850694444444444,0,0,0.010850694444444444,34.928385416666664,0)" xlink:href="#ac"/><use transform="matrix(0.010850694444444444,0,0,0.010850694444444444,47.623697916666664,0)" xlink:href="#K"/><use transform="matrix(0.010850694444444444,0,0,0.010850694444444444,60.57942708333333,0)" xlink:href="#G"/><use transform="matrix(0.010850694444444444,0,0,0.010850694444444444,72.30902777777777,0)" xlink:href="#G"/></g><g id="D"><use transform="matrix(0.010850694444444444,0,0,0.010850694444444444,0,0)" xlink:href="#L"/><use transform="matrix(0.010850694444444444,0,0,0.010850694444444444,14.2578125,0)" xlink:href="#am"/><use transform="matrix(0.010850694444444444,0,0,0.010850694444444444,27.39800347222222,0)" xlink:href="#ad"/><use transform="matrix(0.010850694444444444,0,0,0.010850694444444444,41.00477430555556,0)" xlink:href="#K"/><use transform="matrix(0.010850694444444444,0,0,0.010850694444444444,53.96050347222222,0)" xlink:href="#J"/><use transform="matrix(0.010850694444444444,0,0,0.010850694444444444,62.67361111111111,0)" xlink:href="#O"/><use transform="matrix(0.010850694444444444,0,0,0.010850694444444444,75.16276041666666,0)" xlink:href="#ae"/><use transform="matrix(0.010850694444444444,0,0,0.010850694444444444,80.5447048611111,0)" xlink:href="#G"/><use transform="matrix(0.010850694444444444,0,0,0.010850694444444444,92.27430555555556,0)" xlink:href="#F"/><use transform="matrix(0.010850694444444444,0,0,0.010850694444444444,105.59895833333331,0)" xlink:href="#J"/></g></defs></g></svg>